<?xml version="1.0" encoding="UTF-8" standalone="no"?>
<svg
   xmlns:dc="http://purl.org/dc/elements/1.1/"
   xmlns:cc="http://creativecommons.org/ns#"
   xmlns:rdf="http://www.w3.org/1999/02/22-rdf-syntax-ns#"
   xmlns:svg="http://www.w3.org/2000/svg"
   xmlns="http://www.w3.org/2000/svg"
   id="svg5570"
   version="1.1"
   viewBox="0 0 512 512"
   height="512mm"
   width="512mm">
  <defs
     id="defs5564">
    <clipPath
       id="clipPath416"
       clipPathUnits="userSpaceOnUse">
      <path
         id="path414"
         d="m 106.521,505.844 h 53.4 v -53.401 h -53.4 z" />
    </clipPath>
    <clipPath
       id="clipPath432"
       clipPathUnits="userSpaceOnUse">
      <path
         id="path430"
         d="m 107.103,505.263 h 53.4 v -53.401 h -53.4 z" />
    </clipPath>
    <clipPath
       id="clipPath452"
       clipPathUnits="userSpaceOnUse">
      <path
         id="path450"
         d="m 121.394,490.97 h 53.401 v -53.4 h -53.401 z" />
    </clipPath>
    <clipPath
       id="clipPath468"
       clipPathUnits="userSpaceOnUse">
      <path
         id="path466"
         d="m 121.976,490.39 h 53.4 v -53.401 h -53.4 z" />
    </clipPath>
    <clipPath
       id="clipPath488"
       clipPathUnits="userSpaceOnUse">
      <path
         id="path486"
         d="M 252.477,497.736 H 303.71 V 458.461 H 252.477 Z" />
    </clipPath>
    <clipPath
       id="clipPath516"
       clipPathUnits="userSpaceOnUse">
      <path
         id="path514"
         d="m 260.136,464.691 h 34.022 v -18.162 h -34.022 z" />
    </clipPath>
    <clipPath
       id="clipPath1186"
       clipPathUnits="userSpaceOnUse">
      <path
         id="path1184"
         d="m 371.012,489.894 h 13.025 v -36.841 h -13.025 z" />
    </clipPath>
    <clipPath
       id="clipPath1238"
       clipPathUnits="userSpaceOnUse">
      <path
         id="path1236"
         d="m 416.701,489.894 h 13.026 v -36.841 h -13.026 z" />
    </clipPath>
    <clipPath
       id="clipPath1290"
       clipPathUnits="userSpaceOnUse">
      <path
         id="path1288"
         d="m 381.949,500.831 h 36.84 v -13.025 h -36.84 z" />
    </clipPath>
    <clipPath
       id="clipPath1342"
       clipPathUnits="userSpaceOnUse">
      <path
         id="path1340"
         d="m 381.949,455.141 h 36.84 v -13.025 h -36.84 z" />
    </clipPath>
    <clipPath
       id="clipPath1378"
       clipPathUnits="userSpaceOnUse">
      <path
         id="path1376"
         d="M 377.82,494.007 H 422.9 V 448.929 H 377.82 Z" />
    </clipPath>
    <clipPath
       id="clipPath1398"
       clipPathUnits="userSpaceOnUse">
      <path
         id="path1396"
         d="m 372.796,499.034 h 55.132 v -28.96 h -55.132 z" />
    </clipPath>
    <clipPath
       id="clipPath1422"
       clipPathUnits="userSpaceOnUse">
      <path
         id="path1420"
         d="m 390.837,480.992 h 19.048 v -10.918 h -19.048 z" />
    </clipPath>
    <clipPath
       id="clipPath2348"
       clipPathUnits="userSpaceOnUse">
      <path
         id="path2346"
         d="m 629.877,480.125 h 17.658 V 462.47 h -17.658 z" />
    </clipPath>
    <clipPath
       id="clipPath2364"
       clipPathUnits="userSpaceOnUse">
      <path
         id="path2362"
         d="m 645.464,464.54 h 17.654 v -17.656 h -17.654 z" />
    </clipPath>
    <clipPath
       id="clipPath2404"
       clipPathUnits="userSpaceOnUse">
      <path
         id="path2402"
         d="m 671.973,484.672 h 11.481 v -11.481 h -11.481 z" />
    </clipPath>
    <clipPath
       id="clipPath2420"
       clipPathUnits="userSpaceOnUse">
      <path
         id="path2418"
         d="m 682.108,494.806 h 11.481 v -11.479 h -11.481 z" />
    </clipPath>
    <clipPath
       id="clipPath2076"
       clipPathUnits="userSpaceOnUse">
      <path
         id="path2074"
         d="m 111.314,382.691 h 49.848 v -7.75 h -49.848 z" />
    </clipPath>
    <clipPath
       id="clipPath2096"
       clipPathUnits="userSpaceOnUse">
      <path
         id="path2094"
         d="m 107.858,373.707 h 56.759 v -3.637 h -56.759 z" />
    </clipPath>
    <clipPath
       id="clipPath2112"
       clipPathUnits="userSpaceOnUse">
      <path
         id="path2110"
         d="m 132.422,358.392 h 29.332 v -21.443 h -29.332 z" />
    </clipPath>
    <clipPath
       id="clipPath2140"
       clipPathUnits="userSpaceOnUse">
      <path
         id="path2138"
         d="m 140.822,357.173 h 19.79 v -19.789 h -19.79 z" />
    </clipPath>
    <clipPath
       id="clipPath2156"
       clipPathUnits="userSpaceOnUse">
      <path
         id="path2154"
         d="m 140.822,357.173 h 17.379 v -17.375 h -17.379 z" />
    </clipPath>
    <clipPath
       id="clipPath2176"
       clipPathUnits="userSpaceOnUse">
      <path
         id="path2174"
         d="m 145.11,344.851 h 3.8 v -3.797 h -3.8 z" />
    </clipPath>
    <clipPath
       id="clipPath2192"
       clipPathUnits="userSpaceOnUse">
      <path
         id="path2190"
         d="m 151.674,354.583 h 6.273 v -6.275 h -6.273 z" />
    </clipPath>
  </defs>
  <metadata
     id="metadata5567">
    <rdf:RDF>
      <cc:Work
         rdf:about="">
        <dc:format>image/svg+xml</dc:format>
        <dc:type
           rdf:resource="http://purl.org/dc/dcmitype/StillImage" />
        <dc:title></dc:title>
      </cc:Work>
    </rdf:RDF>
  </metadata>
  <g
     transform="translate(0,215)"
     id="layer1">
    <g
       style="stroke-width:0.05060491"
       id="g6171"
       transform="matrix(6.9712169,0,0,-6.9712169,-724.48669,3324.4963)">
      <g
         style="stroke-width:0.00245498"
         id="g6693"
         transform="matrix(1.0431277,0,0,1.0431277,-5.5664089,101.88818)">
        <g
           style="stroke-width:0.00245498"
           id="g2062"
           transform="translate(158.251,379.2339)">
          <path
             d="m 0,0 h -24.778 l -5.725,3.457 h -13.522 c -1.609,0 -2.912,-1.303 -2.912,-2.912 v -30.934 c 0,-1.609 1.303,-2.912 2.912,-2.912 H -18.557 0 c 1.607,0 2.911,1.303 2.911,2.912 V -2.91 C 2.911,-1.303 1.607,0 0,0"
             style="fill:#f7971d;fill-opacity:1;fill-rule:nonzero;stroke:none;stroke-width:0.00245498"
             id="path2064" />
        </g>
        <g
           style="stroke-width:0.00245498"
           id="g2066"
           transform="translate(161.1621,357.3999)">
          <path
             d="m 0,0 v 15.467 c 0,1.607 -1.304,2.914 -2.911,2.914 H -28.38 -46.937 c -1.608,0 -2.911,-1.307 -2.911,-2.914 V 0 Z"
             style="fill:#dce2e9;fill-opacity:1;fill-rule:nonzero;stroke:none;stroke-width:0.00245498"
             id="path2068" />
        </g>
        <g
           style="stroke-width:0.00245498"
           id="g2070">
          <g
             style="stroke-width:0.00245498"
             id="g2072" />
          <g
             style="stroke-width:0.00245498"
             id="g2084">
            <g
               clip-path="url(#clipPath2076)"
               id="g2082"
               style="opacity:0.5;stroke-width:0.00245498">
              <g
                 style="stroke-width:0.00245498"
                 transform="translate(158.251,379.2339)"
                 id="g2080">
                <path
                   d="m 0,0 h -24.778 l -5.725,3.457 h -13.522 c -1.609,0 -2.912,-1.303 -2.912,-2.912 v -1.383 c 0,1.609 1.303,2.912 2.912,2.912 h 13.522 l 5.725,-3.455 H 0 c 1.607,0 2.911,-1.305 2.911,-2.912 V -2.91 C 2.911,-1.303 1.607,0 0,0"
                   style="fill:#ffc52f;fill-opacity:1;fill-rule:nonzero;stroke:none;stroke-width:0.00245498"
                   id="path2078" />
              </g>
            </g>
          </g>
        </g>
        <g
           style="stroke-width:0.00245498"
           id="g2086"
           transform="translate(161.707,373.7065)">
          <path
             d="m 0,0 h -25.469 -25.468 c -1.609,0 -2.912,-1.305 -2.912,-2.912 l 3.456,-30.934 c 0,-1.609 1.303,-2.912 2.912,-2.912 h 22.012 22.013 c 1.607,0 2.911,1.303 2.911,2.912 L 2.91,-2.912 C 2.91,-1.305 1.607,0 0,0"
             style="fill:#ffc52f;fill-opacity:1;fill-rule:nonzero;stroke:none;stroke-width:0.00245498"
             id="path2088" />
        </g>
        <g
           style="stroke-width:0.00245498"
           id="g2090">
          <g
             style="stroke-width:0.00245498"
             id="g2092" />
          <g
             style="stroke-width:0.00245498"
             id="g2104">
            <g
               clip-path="url(#clipPath2096)"
               id="g2102"
               style="opacity:0.5;stroke-width:0.00245498">
              <g
                 style="stroke-width:0.00245498"
                 transform="translate(110.7705,372.3237)"
                 id="g2100">
                <path
                   d="m 0,0 h 25.468 25.469 c 1.379,0 2.529,-0.965 2.83,-2.254 l 0.08,0.725 c 0,1.607 -1.303,2.912 -2.91,2.912 H 25.468 0 c -1.609,0 -2.912,-1.305 -2.912,-2.912 l 0.081,-0.725 C -2.531,-0.965 -1.382,0 0,0"
                   style="fill:#ffc52f;fill-opacity:1;fill-rule:nonzero;stroke:none;stroke-width:0.00245498"
                   id="path2098" />
              </g>
            </g>
          </g>
        </g>
        <g
           style="stroke-width:0.00245498"
           id="g2106">
          <g
             style="stroke-width:0.00245498"
             id="g2108" />
          <g
             style="stroke-width:0.00245498"
             id="g2120">
            <g
               clip-path="url(#clipPath2112)"
               id="g2118"
               style="opacity:0.60000598;stroke-width:0.00245498">
              <g
                 style="stroke-width:0.00245498"
                 transform="translate(161.1621,339.8608)"
                 id="g2116">
                <path
                   d="m 0,0 0.592,5.299 c -0.739,7.428 -7.005,13.232 -14.627,13.232 -8.122,0 -14.705,-6.584 -14.705,-14.705 0,-2.431 0.599,-4.719 1.645,-6.738 h 2.171 22.013 C -1.304,-2.912 0,-1.609 0,0"
                   style="fill:#8c93a1;fill-opacity:1;fill-rule:nonzero;stroke:none;stroke-width:0.00245498"
                   id="path2114" />
              </g>
            </g>
          </g>
        </g>
        <g
           style="stroke-width:0.00245498"
           id="g2122"
           transform="translate(169.4082,331.4644)">
          <path
             d="M 0,0 -2.939,-2.939 -11.708,5.83 -8.77,8.768 Z"
             style="fill:#dce2e9;fill-opacity:1;fill-rule:nonzero;stroke:none;stroke-width:0.00245498"
             id="path2124" />
        </g>
        <g
           style="stroke-width:0.00245498"
           id="g2126"
           transform="translate(165.4209,347.2788)">
          <path
             d="m 0,0 c 0,-8.119 -6.583,-14.701 -14.703,-14.701 -8.121,0 -14.705,6.582 -14.705,14.701 0,8.121 6.584,14.705 14.705,14.705 C -6.583,14.705 0,8.121 0,0"
             style="fill:#dce2e9;fill-opacity:1;fill-rule:nonzero;stroke:none;stroke-width:0.00245498"
             id="path2128" />
        </g>
        <g
           style="stroke-width:0.00245498"
           id="g2130"
           transform="translate(161.6816,347.2788)">
          <path
             d="m 0,0 c 0,-6.053 -4.908,-10.963 -10.964,-10.963 -6.055,0 -10.964,4.91 -10.964,10.963 0,6.055 4.909,10.965 10.964,10.965 C -4.908,10.965 0,6.055 0,0"
             style="fill:#8c93a1;fill-opacity:1;fill-rule:nonzero;stroke:none;stroke-width:0.00245498"
             id="path2132" />
        </g>
        <g
           style="stroke-width:0.00245498"
           id="g2134">
          <g
             style="stroke-width:0.00245498"
             id="g2136" />
          <g
             style="stroke-width:0.00245498"
             id="g2148">
            <g
               clip-path="url(#clipPath2140)"
               id="g2146"
               style="opacity:0.60000598;stroke-width:0.00245498">
              <g
                 style="stroke-width:0.00245498"
                 transform="translate(150.7178,337.3843)"
                 id="g2144">
                <path
                   d="m 0,0 c -5.463,0 -9.896,4.432 -9.896,9.895 0,5.466 4.433,9.894 9.896,9.894 5.465,0 9.895,-4.428 9.895,-9.894 C 9.895,4.432 5.465,0 0,0"
                   style="fill:#5a6271;fill-opacity:1;fill-rule:nonzero;stroke:none;stroke-width:0.00245498"
                   id="path2142" />
              </g>
            </g>
          </g>
        </g>
        <g
           style="stroke-width:0.00245498"
           id="g2150">
          <g
             style="stroke-width:0.00245498"
             id="g2152" />
          <g
             style="stroke-width:0.00245498"
             id="g2164">
            <g
               clip-path="url(#clipPath2156)"
               id="g2162"
               style="opacity:0.60000598;stroke-width:0.00245498">
              <g
                 style="stroke-width:0.00245498"
                 transform="translate(141.833,346.2651)"
                 id="g2160">
                <path
                   d="m 0,0 c 0,5.467 4.433,9.895 9.897,9.895 2.474,0 4.735,-0.909 6.471,-2.411 -1.815,2.098 -4.493,3.424 -7.483,3.424 -5.463,0 -9.896,-4.428 -9.896,-9.894 0,-2.989 1.328,-5.666 3.425,-7.481 C 0.912,-4.734 0,-2.473 0,0"
                   style="fill:#5a6271;fill-opacity:1;fill-rule:nonzero;stroke:none;stroke-width:0.00245498"
                   id="path2158" />
              </g>
            </g>
          </g>
        </g>
        <g
           style="stroke-width:0.00245498"
           id="g2166"
           transform="translate(150.7178,342.394)">
          <path
             d="M 0,0 C -2.695,0 -4.886,2.188 -4.886,4.885 -4.886,7.582 -2.695,9.77 0,9.77 2.696,9.77 4.885,7.582 4.885,4.885 4.885,2.188 2.696,0 0,0"
             style="fill:#5a6271;fill-opacity:1;fill-rule:nonzero;stroke:none;stroke-width:0.00245498"
             id="path2168" />
        </g>
        <g
           style="stroke-width:0.00245498"
           id="g2170">
          <g
             style="stroke-width:0.00245498"
             id="g2172" />
          <g
             style="stroke-width:0.00245498"
             id="g2184">
            <g
               clip-path="url(#clipPath2176)"
               id="g2182"
               style="opacity:0.5;stroke-width:0.00245498">
              <g
                 style="stroke-width:0.00245498"
                 transform="translate(147.0098,341.0542)"
                 id="g2180">
                <path
                   d="m 0,0 c -1.048,0 -1.899,0.85 -1.899,1.898 0,1.049 0.851,1.899 1.899,1.899 1.049,0 1.9,-0.85 1.9,-1.899 C 1.9,0.85 1.049,0 0,0"
                   style="fill:#f3f3f3;fill-opacity:1;fill-rule:nonzero;stroke:none;stroke-width:0.00245498"
                   id="path2178" />
              </g>
            </g>
          </g>
        </g>
        <g
           style="stroke-width:0.00245498"
           id="g2186">
          <g
             style="stroke-width:0.00245498"
             id="g2188" />
          <g
             style="stroke-width:0.00245498"
             id="g2200">
            <g
               clip-path="url(#clipPath2192)"
               id="g2198"
               style="opacity:0.5;stroke-width:0.00245498">
              <g
                 style="stroke-width:0.00245498"
                 transform="translate(157.4502,348.8081)"
                 id="g2196">
                <path
                   d="M 0,0 C -0.937,-0.937 -2.879,-0.518 -4.336,0.939 -5.793,2.398 -6.215,4.338 -5.278,5.275 -4.342,6.213 -2.399,5.791 -0.941,4.334 0.515,2.875 0.935,0.936 0,0"
                   style="fill:#f3f3f3;fill-opacity:1;fill-rule:nonzero;stroke:none;stroke-width:0.00245498"
                   id="path2194" />
              </g>
            </g>
          </g>
        </g>
        <g
           style="stroke-width:0.00245498"
           id="g2202"
           transform="translate(160.6025,332.9722)">
          <path
             d="m 0,0 7.22,-7.221 c 1.075,-1.076 2.91,-0.986 4.097,0.201 1.19,1.188 1.277,3.022 0.203,4.098 L 4.301,4.297 Z"
             style="fill:#5a6271;fill-opacity:1;fill-rule:nonzero;stroke:none;stroke-width:0.00245498"
             id="path2204" />
        </g>
      </g>
    </g>
  </g>
</svg>
